<svg id="visual" viewBox="0 0 1920 1080" width="1920" height="1080" xmlns="http://www.w3.org/2000/svg" xmlns:xlink="http://www.w3.org/1999/xlink" version="1.1"><rect x="0" y="0" width="1920" height="1080" fill="#000000"></rect><path d="M0 323L40 331C80 339 160 355 240 346.2C320 337.3 400 303.7 480 265.7C560 227.7 640 185.3 720 198.8C800 212.3 880 281.7 960 290.7C1040 299.7 1120 248.3 1200 251.7C1280 255 1360 313 1440 345.3C1520 377.7 1600 384.3 1680 363C1760 341.7 1840 292.3 1880 267.7L1920 243L1920 0L1880 0C1840 0 1760 0 1680 0C1600 0 1520 0 1440 0C1360 0 1280 0 1200 0C1120 0 1040 0 960 0C880 0 800 0 720 0C640 0 560 0 480 0C400 0 320 0 240 0C160 0 80 0 40 0L0 0Z" fill="#ffffff" stroke-linecap="round" stroke-linejoin="miter"></path></svg>